<svg width="142" height="198" viewBox="0 0 142 198" fill="none" xmlns="http://www.w3.org/2000/svg">
<g opacity="0.4">
<mask id="mask0_610_95" style="mask-type:alpha" maskUnits="userSpaceOnUse" x="-517" y="0" width="659" height="198">
<rect x="142" y="0.996582" width="197" height="659" transform="rotate(90 142 0.996582)" fill="#C4C4C4"/>
</mask>
<g mask="url(#mask0_610_95)">
<rect x="187.42" y="16.7534" width="1.07194" height="828.454" transform="rotate(105 187.42 16.7534)" fill="black"/>
<rect x="185.835" y="22.6714" width="1.07194" height="828.454" transform="rotate(105 185.835 22.6714)" fill="black"/>
<rect x="184.249" y="28.5874" width="1.07194" height="828.454" transform="rotate(105 184.249 28.5874)" fill="black"/>
<rect x="182.664" y="34.5059" width="1.07194" height="828.454" transform="rotate(105 182.664 34.5059)" fill="black"/>
<rect x="190.591" y="4.92188" width="1.07194" height="828.454" transform="rotate(105 190.591 4.92188)" fill="black"/>
<rect x="181.078" y="40.4214" width="1.07194" height="828.454" transform="rotate(105 181.078 40.4214)" fill="black"/>
<rect x="189.006" y="10.8374" width="1.07194" height="828.454" transform="rotate(105 189.006 10.8374)" fill="black"/>
<rect x="179.493" y="46.3369" width="1.07194" height="828.454" transform="rotate(105 179.493 46.3369)" fill="black"/>
<rect x="178.114" y="51.4878" width="1.07194" height="828.454" transform="rotate(105 178.114 51.4878)" fill="black"/>
<rect x="168.602" y="86.9849" width="1.07194" height="828.454" transform="rotate(105 168.602 86.9849)" fill="black"/>
<rect x="176.528" y="57.4038" width="1.07194" height="828.454" transform="rotate(105 176.528 57.4038)" fill="black"/>
<rect x="167.016" y="92.9062" width="1.07194" height="828.454" transform="rotate(105 167.016 92.9062)" fill="black"/>
<rect x="174.943" y="63.3193" width="1.07194" height="828.454" transform="rotate(105 174.943 63.3193)" fill="black"/>
<rect x="165.431" y="98.8218" width="1.07194" height="828.454" transform="rotate(105 165.431 98.8218)" fill="black"/>
<rect x="173.358" y="69.2378" width="1.07194" height="828.454" transform="rotate(105 173.358 69.2378)" fill="black"/>
<rect x="163.845" y="104.737" width="1.07194" height="828.454" transform="rotate(105 163.845 104.737)" fill="black"/>
<rect x="171.772" y="75.1533" width="1.07194" height="828.454" transform="rotate(105 171.772 75.1533)" fill="black"/>
<rect x="162.26" y="110.653" width="1.07194" height="828.454" transform="rotate(105 162.26 110.653)" fill="black"/>
<rect x="170.187" y="81.0693" width="1.07194" height="828.454" transform="rotate(105 170.187 81.0693)" fill="black"/>
<rect x="160.674" y="116.569" width="1.07194" height="828.454" transform="rotate(105 160.674 116.569)" fill="black"/>
<rect x="159.089" y="122.487" width="1.07194" height="828.454" transform="rotate(105 159.089 122.487)" fill="black"/>
<rect x="149.577" y="157.987" width="1.07194" height="828.454" transform="rotate(105 149.577 157.987)" fill="black"/>
<rect x="157.504" y="128.403" width="1.07194" height="828.454" transform="rotate(105 157.504 128.403)" fill="black"/>
<rect x="147.992" y="163.903" width="1.07194" height="828.454" transform="rotate(105 147.992 163.903)" fill="black"/>
<rect x="155.919" y="134.319" width="1.07194" height="828.454" transform="rotate(105 155.919 134.319)" fill="black"/>
<rect x="146.407" y="169.819" width="1.07194" height="828.454" transform="rotate(105 146.407 169.819)" fill="black"/>
<rect x="154.333" y="140.235" width="1.07194" height="828.454" transform="rotate(105 154.333 140.235)" fill="black"/>
<rect x="144.821" y="175.737" width="1.07194" height="828.454" transform="rotate(105 144.821 175.737)" fill="black"/>
<rect x="152.748" y="146.151" width="1.07194" height="828.454" transform="rotate(105 152.748 146.151)" fill="black"/>
<rect x="143.236" y="181.653" width="1.07194" height="828.454" transform="rotate(105 143.236 181.653)" fill="black"/>
<rect x="151.163" y="152.071" width="1.07194" height="828.454" transform="rotate(105 151.163 152.071)" fill="black"/>
<rect x="141.65" y="187.569" width="1.07194" height="828.454" transform="rotate(105 141.65 187.569)" fill="black"/>
<rect x="140.065" y="193.487" width="1.07194" height="828.454" transform="rotate(105 140.065 193.487)" fill="black"/>
<rect x="130.553" y="228.984" width="1.07194" height="828.454" transform="rotate(105 130.553 228.984)" fill="black"/>
<rect x="138.48" y="199.403" width="1.07194" height="828.454" transform="rotate(105 138.48 199.403)" fill="black"/>
<rect x="128.968" y="234.902" width="1.07194" height="828.454" transform="rotate(105 128.968 234.902)" fill="black"/>
<rect x="136.894" y="205.321" width="1.07194" height="828.454" transform="rotate(105 136.894 205.321)" fill="black"/>
<rect x="127.382" y="240.821" width="1.07194" height="828.454" transform="rotate(105 127.382 240.821)" fill="black"/>
<rect x="135.309" y="211.237" width="1.07194" height="828.454" transform="rotate(105 135.309 211.237)" fill="black"/>
<rect x="125.797" y="246.736" width="1.07194" height="828.454" transform="rotate(105 125.797 246.736)" fill="black"/>
<rect x="133.724" y="217.153" width="1.07194" height="828.454" transform="rotate(105 133.724 217.153)" fill="black"/>
<rect x="124.212" y="252.652" width="1.07194" height="828.454" transform="rotate(105 124.212 252.652)" fill="black"/>
<rect x="132.138" y="223.068" width="1.07194" height="828.454" transform="rotate(105 132.138 223.068)" fill="black"/>
<rect x="122.626" y="258.571" width="1.07194" height="828.454" transform="rotate(105 122.626 258.571)" fill="black"/>
<rect x="121.041" y="264.486" width="1.07194" height="828.454" transform="rotate(105 121.041 264.486)" fill="black"/>
<rect x="111.529" y="299.986" width="1.07194" height="828.454" transform="rotate(105 111.529 299.986)" fill="black"/>
<rect x="119.455" y="270.402" width="1.07194" height="828.454" transform="rotate(105 119.455 270.402)" fill="black"/>
<rect x="109.943" y="305.902" width="1.07194" height="828.454" transform="rotate(105 109.943 305.902)" fill="black"/>
<rect x="117.87" y="276.318" width="1.07194" height="828.454" transform="rotate(105 117.87 276.318)" fill="black"/>
<rect x="108.358" y="311.82" width="1.07194" height="828.454" transform="rotate(105 108.358 311.82)" fill="black"/>
<rect x="116.285" y="282.233" width="1.07194" height="828.454" transform="rotate(105 116.285 282.233)" fill="black"/>
<rect x="106.773" y="317.736" width="1.07194" height="828.454" transform="rotate(105 106.773 317.736)" fill="black"/>
<rect x="114.699" y="288.155" width="1.07194" height="828.454" transform="rotate(105 114.699 288.155)" fill="black"/>
<rect x="105.187" y="323.651" width="1.07194" height="828.454" transform="rotate(105 105.187 323.651)" fill="black"/>
<rect x="113.114" y="294.07" width="1.07194" height="828.454" transform="rotate(105 113.114 294.07)" fill="black"/>
<rect x="103.602" y="329.567" width="1.07194" height="828.454" transform="rotate(105 103.602 329.567)" fill="black"/>
<rect x="102.016" y="335.483" width="1.07194" height="828.454" transform="rotate(105 102.016 335.483)" fill="black"/>
<rect x="92.5042" y="370.986" width="1.07194" height="828.454" transform="rotate(105 92.5042 370.986)" fill="black"/>
<rect x="100.431" y="341.404" width="1.07194" height="828.454" transform="rotate(105 100.431 341.404)" fill="black"/>
<rect x="90.9191" y="376.901" width="1.07194" height="828.454" transform="rotate(105 90.9191 376.901)" fill="black"/>
<rect x="98.8455" y="347.32" width="1.07194" height="828.454" transform="rotate(105 98.8455 347.32)" fill="black"/>
<rect x="89.3336" y="382.819" width="1.07194" height="828.454" transform="rotate(105 89.3336 382.819)" fill="black"/>
<rect x="97.2604" y="353.235" width="1.07194" height="828.454" transform="rotate(105 97.2604 353.235)" fill="black"/>
<rect x="87.7484" y="388.736" width="1.07194" height="828.454" transform="rotate(105 87.7484 388.736)" fill="black"/>
<rect x="95.6749" y="359.152" width="1.07194" height="828.454" transform="rotate(105 95.6749 359.152)" fill="black"/>
<rect x="86.1628" y="394.653" width="1.07194" height="828.454" transform="rotate(105 86.1628 394.653)" fill="black"/>
<rect x="94.0897" y="365.067" width="1.07194" height="828.454" transform="rotate(105 94.0897 365.067)" fill="black"/>
<rect x="84.5777" y="400.57" width="1.07194" height="828.454" transform="rotate(105 84.5777 400.57)" fill="black"/>
<rect x="82.9922" y="406.485" width="1.07194" height="828.454" transform="rotate(105 82.9922 406.485)" fill="black"/>
<rect x="81.407" y="412.401" width="1.07194" height="828.454" transform="rotate(105 81.407 412.401)" fill="black"/>
</g>
</g>
</svg>
